<?xml version="1.0" standalone="no"?>
<!DOCTYPE svg PUBLIC "-//W3C//DTD SVG 20010904//EN"
 "http://www.w3.org/TR/2001/REC-SVG-20010904/DTD/svg10.dtd">
<svg version="1.0" xmlns="http://www.w3.org/2000/svg"
 width="1363.000000pt" height="1363.000000pt" viewBox="0 0 1363.000000 1363.000000"
 preserveAspectRatio="xMidYMid meet">
<metadata>
Created by potrace 1.11, written by Peter Selinger 2001-2013
</metadata>
<g transform="translate(0.000000,1363.000000) scale(0.100000,-0.100000)"
fill="#000000" stroke="none">
<path d="M3138 12622 c-13 -3 -15 -198 -15 -1754 l0 -1752 61 66 c34 36 86 93
116 128 30 35 60 68 66 74 5 6 32 36 59 66 26 30 80 91 120 135 73 81 225 252
280 314 17 19 51 57 76 85 52 58 210 235 308 345 69 79 146 164 171 191 8 9
33 36 55 61 118 135 162 184 184 207 l24 24 1 904 c1 797 -1 904 -14 905 -68
2 -1480 3 -1492 1z"/>
<path d="M7602 11472 c-37 -41 -75 -84 -85 -96 -10 -12 -33 -37 -50 -56 -18
-20 -63 -71 -102 -115 -38 -44 -77 -86 -85 -95 -15 -17 -47 -52 -280 -315 -73
-82 -142 -160 -154 -172 -11 -12 -39 -43 -61 -69 -22 -26 -49 -57 -60 -68 -11
-12 -49 -55 -85 -96 -36 -41 -70 -79 -76 -85 -6 -5 -121 -134 -255 -285 -229
-259 -290 -327 -314 -354 -5 -6 -44 -49 -85 -96 -41 -47 -82 -92 -90 -100 -8
-8 -46 -51 -84 -95 -39 -44 -75 -84 -80 -90 -6 -5 -60 -66 -120 -135 -60 -69
-119 -134 -131 -145 -11 -11 -33 -36 -49 -55 -16 -19 -49 -58 -75 -86 -25 -28
-71 -79 -101 -114 -30 -35 -62 -71 -71 -79 -8 -9 -179 -200 -379 -426 -201
-225 -369 -415 -375 -421 -5 -6 -33 -37 -62 -70 -52 -60 -80 -92 -137 -154
-18 -19 -108 -120 -201 -225 -92 -104 -200 -226 -239 -269 -39 -43 -79 -88
-89 -100 -10 -12 -48 -54 -85 -95 -37 -41 -73 -82 -80 -92 -11 -16 4 -40 133
-206 80 -103 151 -195 158 -203 7 -8 35 -44 63 -80 28 -36 66 -81 85 -101 19
-19 66 -70 104 -113 39 -44 84 -93 100 -111 17 -18 55 -61 87 -96 31 -35 67
-75 80 -90 39 -42 165 -183 185 -205 25 -30 160 -178 204 -225 19 -21 62 -68
95 -105 32 -37 70 -79 84 -94 14 -15 52 -58 85 -95 33 -38 74 -82 90 -100 17
-17 57 -62 90 -100 33 -38 71 -80 85 -94 14 -14 82 -89 150 -166 69 -76 132
-146 140 -155 21 -23 154 -170 180 -200 12 -14 40 -45 63 -70 23 -25 80 -88
127 -140 47 -52 87 -97 90 -100 3 -3 43 -48 90 -100 47 -52 104 -115 127 -140
23 -25 50 -55 61 -68 26 -29 140 -157 172 -192 26 -28 39 -43 180 -199 47 -52
92 -102 100 -111 32 -35 99 -109 180 -200 47 -52 106 -117 132 -145 25 -27 56
-61 68 -75 18 -21 84 -94 185 -206 11 -12 49 -55 85 -95 72 -81 155 -172 185
-204 11 -12 51 -57 90 -101 89 -100 81 -92 140 -155 28 -30 86 -95 130 -144
44 -50 85 -94 91 -100 6 -5 66 -73 135 -150 68 -77 133 -149 144 -161 11 -11
35 -38 54 -60 19 -21 57 -64 85 -94 62 -67 197 -217 223 -246 l18 -22 994 0
993 0 -19 21 c-10 12 -20 24 -23 27 -3 3 -50 55 -105 115 -55 61 -123 135
-151 165 -28 30 -62 67 -76 82 -13 14 -53 59 -88 98 -69 76 -137 149 -199 215
-20 22 -89 96 -151 165 -63 69 -117 127 -120 130 -3 3 -45 50 -95 105 -49 55
-99 109 -110 121 -54 58 -207 224 -223 241 -14 17 -95 105 -207 228 -16 17
-70 76 -122 132 -52 56 -102 110 -111 121 -16 18 -156 171 -217 237 -16 18
-66 72 -110 121 -44 48 -93 102 -110 120 -16 18 -66 72 -110 120 -44 48 -85
92 -90 98 -6 6 -65 70 -130 141 -66 72 -124 135 -130 141 -19 20 -180 196
-195 214 -8 9 -60 66 -115 126 -188 204 -220 239 -260 283 -22 24 -51 56 -65
71 -14 14 -68 73 -120 131 -52 57 -97 106 -100 109 -3 3 -52 57 -110 120 -58
63 -130 142 -161 175 -31 33 -111 121 -179 195 -68 74 -164 179 -214 234 -50
54 -98 106 -106 116 -8 9 -58 64 -110 120 -119 129 -136 147 -185 201 -22 24
-89 98 -150 164 -136 148 -114 124 -215 235 -47 51 -90 98 -95 104 -6 6 -42
45 -79 86 -38 41 -89 96 -113 122 -30 33 -42 52 -36 62 4 7 49 58 98 111 101
111 116 127 164 181 19 22 57 64 85 94 28 30 89 98 136 150 47 52 92 101 100
110 8 9 49 54 90 100 41 46 82 91 90 100 29 31 169 185 190 210 12 14 43 48
68 75 26 28 88 95 137 150 49 55 105 118 125 140 20 22 63 69 96 105 32 36 95
105 139 154 44 48 89 98 100 110 11 12 58 64 105 115 47 52 93 103 103 115 22
25 62 70 137 152 30 33 71 78 90 100 39 42 225 248 299 330 25 27 82 90 126
138 77 86 106 118 164 181 15 17 52 57 82 90 29 34 90 101 134 149 44 49 89
98 100 110 11 13 56 63 101 112 44 49 147 163 229 254 81 91 153 170 159 175
6 6 45 48 86 95 41 47 78 87 81 90 3 3 32 34 64 70 58 64 179 198 285 315 30
33 93 103 140 155 47 51 104 114 127 139 24 25 43 49 43 52 0 3 -428 6 -950 6
l-950 0 -68 -75z"/>
<path d="M3123 2725 l0 -1725 761 0 761 0 -2 872 c-1 480 -2 880 -2 888 -1 8
-23 38 -49 66 -26 28 -81 88 -122 134 -41 46 -84 93 -95 104 -11 12 -54 59
-95 106 -41 47 -77 87 -80 90 -21 21 -258 283 -376 415 -49 55 -98 109 -109
120 -11 11 -51 56 -90 100 -38 43 -77 86 -85 95 -12 13 -161 176 -195 214 -5
6 -50 56 -100 111 -49 55 -97 108 -106 118 -15 16 -16 -128 -16 -1708z"/>
</g>
</svg>
